<svg xmlns="http://www.w3.org/2000/svg" xmlns:xlink="http://www.w3.org/1999/xlink" width="182" zoomAndPan="magnify" viewBox="0 0 136.5 33.749998" height="45" preserveAspectRatio="xMidYMid meet" version="1.0"><defs><g/><clipPath id="3018495776"><path d="M 0.796875 8 L 26 8 L 26 31.566406 L 0.796875 31.566406 Z M 0.796875 8 " clip-rule="nonzero"/></clipPath><clipPath id="e963b1b07c"><path d="M 6.804688 2.425781 L 35.898438 2.425781 L 35.898438 31.5625 L 6.804688 31.5625 Z M 6.804688 2.425781 " clip-rule="nonzero"/></clipPath></defs><g clip-path="url(#3018495776)"><path fill="#000000" d="M 19.195312 18.105469 C 19.726562 18.445312 19.964844 18.78125 20.269531 19.207031 C 20.429688 19.4375 20.617188 19.703125 20.910156 20.015625 C 21.515625 20.660156 22.203125 21.203125 22.878906 21.734375 C 23.855469 22.5 24.808594 23.25 25.578125 24.351562 C 25.820312 24.695312 25.921875 25.253906 25.90625 25.8125 C 25.886719 26.367188 25.761719 26.957031 25.546875 27.355469 C 25.332031 27.753906 24.890625 27.996094 24.394531 28.128906 C 23.9375 28.25 23.40625 28.289062 23.015625 28.28125 C 21.679688 29.296875 20.949219 28.585938 20.058594 27.71875 C 19.757812 27.425781 19.425781 27.101562 19.050781 26.898438 C 18.640625 26.675781 18.171875 26.585938 17.6875 26.59375 C 17.121094 26.605469 16.542969 26.753906 16.023438 26.988281 C 15.769531 27.101562 15.574219 27.214844 15.386719 27.324219 C 15.046875 27.527344 14.738281 27.707031 14.171875 27.871094 C 13.328125 28.105469 12.691406 28.429688 12.300781 28.902344 C 11.921875 29.355469 11.75 29.988281 11.8125 30.871094 C 11.835938 31.210938 11.578125 31.507812 11.238281 31.53125 C 10.898438 31.554688 10.605469 31.296875 10.582031 30.953125 C 10.5 29.726562 10.769531 28.808594 11.355469 28.105469 C 11.921875 27.421875 12.765625 26.976562 13.84375 26.671875 C 14.257812 26.554688 14.5 26.414062 14.765625 26.253906 C 14.976562 26.132812 15.199219 26 15.527344 25.851562 C 16.1875 25.554688 16.933594 25.367188 17.667969 25.355469 C 18.351562 25.339844 19.027344 25.472656 19.632812 25.800781 C 20.15625 26.085938 20.550781 26.472656 20.914062 26.824219 C 21.402344 27.300781 21.804688 27.691406 22.421875 27.171875 C 22.542969 27.066406 22.707031 27.011719 22.878906 27.03125 C 23.152344 27.058594 23.65625 27.039062 24.082031 26.925781 C 24.28125 26.875 24.4375 26.816406 24.464844 26.765625 C 24.589844 26.53125 24.664062 26.152344 24.675781 25.78125 C 24.6875 25.460938 24.65625 25.179688 24.574219 25.066406 C 23.921875 24.132812 23.03125 23.433594 22.125 22.71875 C 21.414062 22.160156 20.695312 21.59375 20.015625 20.867188 C 19.667969 20.496094 19.453125 20.195312 19.265625 19.929688 C 18.960938 19.5 18.75 19.199219 17.890625 18.832031 C 16.335938 19.503906 14.511719 19.722656 12.746094 19.648438 C 12.59375 19.640625 12.464844 19.636719 12.355469 19.628906 C 9.398438 19.429688 6.539062 18.207031 4.40625 16.246094 C 2.394531 14.394531 1.023438 11.890625 0.824219 8.980469 C 0.808594 8.769531 0.902344 8.5625 1.082031 8.429688 C 1.355469 8.234375 1.742188 8.296875 1.9375 8.578125 C 2.449219 9.304688 3 10.011719 3.636719 10.632812 C 4.007812 10.992188 4.40625 11.324219 4.84375 11.613281 C 4.835938 11.285156 4.84375 10.941406 4.863281 10.605469 C 4.90625 9.921875 5.011719 9.25 5.199219 8.78125 C 5.265625 8.597656 5.414062 8.445312 5.613281 8.386719 C 5.941406 8.292969 6.28125 8.484375 6.375 8.816406 C 6.71875 10.03125 7.429688 11.554688 8.324219 12.828125 C 8.726562 13.40625 9.164062 13.925781 9.617188 14.339844 C 9.601562 13.683594 9.6875 13.003906 9.851562 12.378906 C 10.167969 11.15625 10.804688 10.09375 11.582031 9.714844 C 11.683594 9.664062 11.796875 9.640625 11.914062 9.65625 C 12.253906 9.691406 12.5 9.996094 12.460938 10.339844 C 12.394531 10.984375 12.417969 11.582031 12.507812 12.121094 C 12.609375 12.695312 12.785156 13.195312 13.015625 13.613281 C 13.339844 14.207031 13.824219 14.539062 14.332031 14.644531 C 14.542969 14.691406 14.765625 14.695312 14.984375 14.660156 C 15.199219 14.628906 15.40625 14.558594 15.597656 14.453125 C 16.042969 14.203125 16.394531 13.753906 16.523438 13.132812 C 16.613281 12.703125 16.625 12.242188 16.550781 11.785156 C 16.480469 11.371094 16.335938 10.964844 16.105469 10.597656 C 15.921875 10.308594 16.003906 9.925781 16.292969 9.742188 C 16.578125 9.558594 16.957031 9.640625 17.140625 9.929688 C 17.464844 10.449219 17.667969 11.011719 17.761719 11.578125 C 17.867188 12.1875 17.847656 12.808594 17.726562 13.386719 C 17.523438 14.390625 16.933594 15.121094 16.195312 15.535156 C 15.871094 15.71875 15.523438 15.835938 15.167969 15.894531 C 14.8125 15.949219 14.445312 15.9375 14.082031 15.863281 C 13.246094 15.6875 12.453125 15.15625 11.941406 14.21875 C 11.644531 13.675781 11.417969 13.042969 11.292969 12.328125 C 11.277344 12.234375 11.265625 12.136719 11.25 12.039062 C 11.171875 12.242188 11.101562 12.464844 11.039062 12.695312 C 10.800781 13.609375 10.757812 14.644531 11.03125 15.445312 C 11.140625 15.769531 10.96875 16.125 10.648438 16.234375 C 10.480469 16.292969 10.304688 16.273438 10.160156 16.199219 C 9.136719 15.730469 8.152344 14.726562 7.324219 13.542969 C 6.851562 12.875 6.429688 12.140625 6.070312 11.410156 C 6.074219 11.871094 6.105469 12.296875 6.160156 12.605469 C 6.21875 12.945312 5.996094 13.265625 5.660156 13.324219 C 5.523438 13.351562 5.386719 13.328125 5.273438 13.269531 C 4.308594 12.824219 3.496094 12.21875 2.785156 11.527344 C 2.703125 11.445312 2.617188 11.363281 2.535156 11.277344 C 3.078125 12.84375 4.027344 14.214844 5.234375 15.328125 C 7.164062 17.097656 9.753906 18.207031 12.433594 18.386719 C 12.574219 18.398438 12.695312 18.402344 12.796875 18.40625 C 14.675781 18.488281 16.605469 18.210938 18.089844 17.347656 C 19.511719 16.519531 20.527344 15.121094 20.671875 12.929688 C 20.679688 12.84375 20.679688 12.777344 20.683594 12.734375 C 20.695312 12.390625 20.984375 12.125 21.320312 12.136719 C 21.660156 12.152344 21.925781 12.441406 21.910156 12.78125 C 21.90625 12.878906 21.902344 12.953125 21.902344 13.007812 C 21.742188 15.421875 20.699219 17.054688 19.195312 18.105469 " fill-opacity="1" fill-rule="nonzero"/></g><path fill="#000000" d="M 21.230469 18.726562 C 20.894531 18.675781 20.664062 18.359375 20.714844 18.019531 C 20.765625 17.679688 21.078125 17.445312 21.414062 17.496094 C 21.855469 17.566406 22.289062 17.613281 22.71875 17.640625 C 22.84375 17.617188 22.957031 17.59375 23.054688 17.570312 C 24.328125 17.238281 25.164062 16.285156 25.644531 15.109375 C 26.144531 13.875 26.257812 12.40625 26.066406 11.128906 C 26.027344 10.875 25.984375 10.644531 25.929688 10.4375 C 25.84375 10.101562 26.042969 9.765625 26.371094 9.679688 C 26.699219 9.597656 27.035156 9.796875 27.121094 10.128906 C 27.1875 10.402344 27.246094 10.675781 27.285156 10.941406 C 27.507812 12.421875 27.371094 14.128906 26.78125 15.582031 C 26.488281 16.304688 26.078125 16.964844 25.550781 17.503906 C 26.527344 17.339844 27.441406 17.050781 28.257812 16.640625 C 28.75 16.117188 29.148438 15.203125 29.289062 14.128906 C 29.421875 13.152344 29.335938 12.058594 28.914062 11.019531 C 28.785156 10.703125 28.933594 10.339844 29.25 10.210938 C 29.5625 10.078125 29.921875 10.230469 30.050781 10.546875 C 30.5625 11.804688 30.667969 13.121094 30.511719 14.292969 C 30.472656 14.5625 30.425781 14.824219 30.363281 15.078125 C 31.292969 14.070312 31.9375 12.765625 32.179688 11.167969 C 32.285156 10.480469 32.316406 9.742188 32.265625 8.953125 C 32.242188 8.609375 32.5 8.3125 32.839844 8.292969 C 33.179688 8.269531 33.472656 8.53125 33.492188 8.875 C 33.550781 9.757812 33.515625 10.585938 33.398438 11.351562 C 33.042969 13.699219 31.933594 15.511719 30.335938 16.78125 C 29.910156 17.117188 29.449219 17.414062 28.960938 17.671875 C 28.929688 17.691406 28.898438 17.707031 28.863281 17.722656 C 27.566406 18.386719 26.066406 18.777344 24.464844 18.878906 C 23.898438 18.917969 23.324219 18.921875 22.734375 18.886719 C 22.722656 18.886719 22.707031 18.886719 22.691406 18.886719 C 22.210938 18.855469 21.722656 18.804688 21.230469 18.726562 " fill-opacity="1" fill-rule="nonzero"/><g clip-path="url(#e963b1b07c)"><path fill="#000000" d="M 8.074219 8.785156 C 8.074219 9.128906 7.796875 9.40625 7.457031 9.40625 C 7.117188 9.40625 6.839844 9.128906 6.839844 8.785156 L 6.839844 3.046875 C 6.839844 2.703125 7.117188 2.425781 7.457031 2.425781 L 35.28125 2.425781 C 35.621094 2.425781 35.898438 2.703125 35.898438 3.046875 L 35.898438 30.941406 C 35.898438 31.285156 35.621094 31.5625 35.28125 31.5625 L 7.457031 31.5625 C 7.117188 31.5625 6.839844 31.285156 6.839844 30.941406 L 6.839844 19.632812 C 6.839844 19.289062 7.117188 19.007812 7.457031 19.007812 C 7.796875 19.007812 8.074219 19.289062 8.074219 19.632812 L 8.074219 30.320312 L 34.664062 30.320312 L 34.664062 3.671875 L 8.074219 3.671875 L 8.074219 8.785156 " fill-opacity="1" fill-rule="nonzero"/></g><path fill="#000000" d="M 18.910156 21.71875 C 18.335938 21.164062 17.65625 21.230469 17.277344 20.746094 C 17.238281 21.265625 17.371094 21.703125 17.691406 22.019531 C 17.941406 22.265625 18.179688 22.363281 18.421875 22.410156 C 18.945312 22.503906 19.46875 22.253906 18.910156 21.71875 " fill-opacity="1" fill-rule="evenodd"/><g fill="#000000" fill-opacity="1"><g transform="translate(38.414928, 23.537184)"><g><path d="M 7.046875 -11.515625 L 2.46875 -0.75 C 2.363281 -0.476562 2.207031 -0.265625 2 -0.109375 C 1.800781 0.0351562 1.582031 0.109375 1.34375 0.109375 C 0.957031 0.109375 0.671875 0.00390625 0.484375 -0.203125 C 0.304688 -0.421875 0.21875 -0.6875 0.21875 -1 C 0.21875 -1.125 0.238281 -1.257812 0.28125 -1.40625 L 5.5625 -14.09375 C 5.675781 -14.375 5.847656 -14.59375 6.078125 -14.75 C 6.304688 -14.90625 6.554688 -14.96875 6.828125 -14.9375 C 7.085938 -14.9375 7.328125 -14.863281 7.546875 -14.71875 C 7.765625 -14.570312 7.921875 -14.363281 8.015625 -14.09375 L 13.234375 -1.65625 C 13.304688 -1.46875 13.34375 -1.296875 13.34375 -1.140625 C 13.34375 -0.765625 13.21875 -0.460938 12.96875 -0.234375 C 12.726562 -0.00390625 12.457031 0.109375 12.15625 0.109375 C 11.90625 0.109375 11.675781 0.03125 11.46875 -0.125 C 11.257812 -0.28125 11.097656 -0.492188 10.984375 -0.765625 L 6.421875 -11.390625 Z M 3.125 -3.328125 L 4.28125 -5.765625 L 10.015625 -5.765625 L 10.421875 -3.328125 Z M 3.125 -3.328125 "/></g></g></g><g fill="#000000" fill-opacity="1"><g transform="translate(51.970566, 23.537184)"><g><path d="M 2.921875 -14.875 C 3.117188 -14.875 3.328125 -14.820312 3.546875 -14.71875 C 3.773438 -14.613281 3.941406 -14.472656 4.046875 -14.296875 L 9.203125 -6.359375 L 8.140625 -6.40625 L 13.4375 -14.296875 C 13.695312 -14.679688 14.039062 -14.875 14.46875 -14.875 C 14.8125 -14.875 15.113281 -14.753906 15.375 -14.515625 C 15.644531 -14.273438 15.78125 -13.960938 15.78125 -13.578125 L 15.78125 -1.296875 C 15.78125 -0.929688 15.660156 -0.625 15.421875 -0.375 C 15.179688 -0.125 14.863281 0 14.46875 0 C 14.070312 0 13.75 -0.125 13.5 -0.375 C 13.257812 -0.625 13.140625 -0.929688 13.140625 -1.296875 L 13.140625 -11.28125 L 13.96875 -11.09375 L 9.640625 -4.5 C 9.503906 -4.34375 9.34375 -4.207031 9.15625 -4.09375 C 8.96875 -3.976562 8.773438 -3.929688 8.578125 -3.953125 C 8.390625 -3.929688 8.195312 -3.976562 8 -4.09375 C 7.8125 -4.207031 7.65625 -4.34375 7.53125 -4.5 L 3.484375 -10.90625 L 4.03125 -12.03125 L 4.03125 -1.296875 C 4.03125 -0.929688 3.914062 -0.625 3.6875 -0.375 C 3.46875 -0.125 3.171875 0 2.796875 0 C 2.441406 0 2.148438 -0.125 1.921875 -0.375 C 1.703125 -0.625 1.59375 -0.929688 1.59375 -1.296875 L 1.59375 -13.578125 C 1.59375 -13.929688 1.722656 -14.234375 1.984375 -14.484375 C 2.242188 -14.742188 2.554688 -14.875 2.921875 -14.875 Z M 2.921875 -14.875 "/></g></g></g><g fill="#000000" fill-opacity="1"><g transform="translate(69.344698, 23.537184)"><g><path d="M 7.046875 -11.515625 L 2.46875 -0.75 C 2.363281 -0.476562 2.207031 -0.265625 2 -0.109375 C 1.800781 0.0351562 1.582031 0.109375 1.34375 0.109375 C 0.957031 0.109375 0.671875 0.00390625 0.484375 -0.203125 C 0.304688 -0.421875 0.21875 -0.6875 0.21875 -1 C 0.21875 -1.125 0.238281 -1.257812 0.28125 -1.40625 L 5.5625 -14.09375 C 5.675781 -14.375 5.847656 -14.59375 6.078125 -14.75 C 6.304688 -14.90625 6.554688 -14.96875 6.828125 -14.9375 C 7.085938 -14.9375 7.328125 -14.863281 7.546875 -14.71875 C 7.765625 -14.570312 7.921875 -14.363281 8.015625 -14.09375 L 13.234375 -1.65625 C 13.304688 -1.46875 13.34375 -1.296875 13.34375 -1.140625 C 13.34375 -0.765625 13.21875 -0.460938 12.96875 -0.234375 C 12.726562 -0.00390625 12.457031 0.109375 12.15625 0.109375 C 11.90625 0.109375 11.675781 0.03125 11.46875 -0.125 C 11.257812 -0.28125 11.097656 -0.492188 10.984375 -0.765625 L 6.421875 -11.390625 Z M 3.125 -3.328125 L 4.28125 -5.765625 L 10.015625 -5.765625 L 10.421875 -3.328125 Z M 3.125 -3.328125 "/></g></g></g><g fill="#000000" fill-opacity="1"><g transform="translate(82.900336, 23.537184)"><g/></g></g><g fill="#000000" fill-opacity="1"><g transform="translate(88.840215, 23.537184)"><g><path d="M 11.625 -14.859375 C 11.9375 -14.859375 12.242188 -14.742188 12.546875 -14.515625 C 12.847656 -14.285156 13 -13.976562 13 -13.59375 C 13 -13.332031 12.898438 -13.066406 12.703125 -12.796875 L 4.578125 -2.359375 L 4.328125 -2.4375 L 11.421875 -2.4375 C 11.785156 -2.4375 12.085938 -2.328125 12.328125 -2.109375 C 12.578125 -1.890625 12.703125 -1.597656 12.703125 -1.234375 C 12.703125 -0.878906 12.578125 -0.582031 12.328125 -0.34375 C 12.085938 -0.113281 11.785156 0 11.421875 0 L 2.09375 0 C 1.726562 0 1.410156 -0.128906 1.140625 -0.390625 C 0.878906 -0.648438 0.75 -0.9375 0.75 -1.25 C 0.75 -1.519531 0.847656 -1.789062 1.046875 -2.0625 L 9.1875 -12.546875 L 9.375 -12.40625 L 2.953125 -12.40625 C 2.578125 -12.40625 2.265625 -12.519531 2.015625 -12.75 C 1.773438 -12.976562 1.65625 -13.273438 1.65625 -13.640625 C 1.65625 -14.015625 1.773438 -14.3125 2.015625 -14.53125 C 2.265625 -14.75 2.578125 -14.859375 2.953125 -14.859375 Z M 11.625 -14.859375 "/></g></g></g><g fill="#000000" fill-opacity="1"><g transform="translate(102.586784, 23.537184)"><g><path d="M 15.25 -7.421875 C 15.25 -6.359375 15.070312 -5.367188 14.71875 -4.453125 C 14.375 -3.535156 13.878906 -2.722656 13.234375 -2.015625 C 12.585938 -1.316406 11.820312 -0.769531 10.9375 -0.375 C 10.050781 0.0195312 9.085938 0.21875 8.046875 0.21875 C 6.992188 0.21875 6.03125 0.0195312 5.15625 -0.375 C 4.28125 -0.769531 3.519531 -1.316406 2.875 -2.015625 C 2.226562 -2.722656 1.726562 -3.535156 1.375 -4.453125 C 1.019531 -5.367188 0.84375 -6.359375 0.84375 -7.421875 C 0.84375 -8.484375 1.019531 -9.472656 1.375 -10.390625 C 1.726562 -11.316406 2.226562 -12.128906 2.875 -12.828125 C 3.519531 -13.523438 4.28125 -14.070312 5.15625 -14.46875 C 6.03125 -14.863281 6.992188 -15.0625 8.046875 -15.0625 C 9.085938 -15.0625 10.050781 -14.863281 10.9375 -14.46875 C 11.820312 -14.070312 12.585938 -13.523438 13.234375 -12.828125 C 13.878906 -12.128906 14.375 -11.316406 14.71875 -10.390625 C 15.070312 -9.472656 15.25 -8.484375 15.25 -7.421875 Z M 12.5 -7.421875 C 12.5 -8.367188 12.304688 -9.226562 11.921875 -10 C 11.546875 -10.769531 11.023438 -11.378906 10.359375 -11.828125 C 9.691406 -12.285156 8.921875 -12.515625 8.046875 -12.515625 C 7.160156 -12.515625 6.382812 -12.285156 5.71875 -11.828125 C 5.0625 -11.378906 4.546875 -10.773438 4.171875 -10.015625 C 3.796875 -9.253906 3.609375 -8.390625 3.609375 -7.421875 C 3.609375 -6.472656 3.796875 -5.613281 4.171875 -4.84375 C 4.546875 -4.070312 5.0625 -3.457031 5.71875 -3 C 6.382812 -2.550781 7.160156 -2.328125 8.046875 -2.328125 C 8.921875 -2.328125 9.691406 -2.550781 10.359375 -3 C 11.023438 -3.457031 11.546875 -4.070312 11.921875 -4.84375 C 12.304688 -5.613281 12.5 -6.472656 12.5 -7.421875 Z M 12.5 -7.421875 "/></g></g></g><g fill="#000000" fill-opacity="1"><g transform="translate(118.688092, 23.537184)"><g><path d="M 15.25 -7.421875 C 15.25 -6.359375 15.070312 -5.367188 14.71875 -4.453125 C 14.375 -3.535156 13.878906 -2.722656 13.234375 -2.015625 C 12.585938 -1.316406 11.820312 -0.769531 10.9375 -0.375 C 10.050781 0.0195312 9.085938 0.21875 8.046875 0.21875 C 6.992188 0.21875 6.03125 0.0195312 5.15625 -0.375 C 4.28125 -0.769531 3.519531 -1.316406 2.875 -2.015625 C 2.226562 -2.722656 1.726562 -3.535156 1.375 -4.453125 C 1.019531 -5.367188 0.84375 -6.359375 0.84375 -7.421875 C 0.84375 -8.484375 1.019531 -9.472656 1.375 -10.390625 C 1.726562 -11.316406 2.226562 -12.128906 2.875 -12.828125 C 3.519531 -13.523438 4.28125 -14.070312 5.15625 -14.46875 C 6.03125 -14.863281 6.992188 -15.0625 8.046875 -15.0625 C 9.085938 -15.0625 10.050781 -14.863281 10.9375 -14.46875 C 11.820312 -14.070312 12.585938 -13.523438 13.234375 -12.828125 C 13.878906 -12.128906 14.375 -11.316406 14.71875 -10.390625 C 15.070312 -9.472656 15.25 -8.484375 15.25 -7.421875 Z M 12.5 -7.421875 C 12.5 -8.367188 12.304688 -9.226562 11.921875 -10 C 11.546875 -10.769531 11.023438 -11.378906 10.359375 -11.828125 C 9.691406 -12.285156 8.921875 -12.515625 8.046875 -12.515625 C 7.160156 -12.515625 6.382812 -12.285156 5.71875 -11.828125 C 5.0625 -11.378906 4.546875 -10.773438 4.171875 -10.015625 C 3.796875 -9.253906 3.609375 -8.390625 3.609375 -7.421875 C 3.609375 -6.472656 3.796875 -5.613281 4.171875 -4.84375 C 4.546875 -4.070312 5.0625 -3.457031 5.71875 -3 C 6.382812 -2.550781 7.160156 -2.328125 8.046875 -2.328125 C 8.921875 -2.328125 9.691406 -2.550781 10.359375 -3 C 11.023438 -3.457031 11.546875 -4.070312 11.921875 -4.84375 C 12.304688 -5.613281 12.5 -6.472656 12.5 -7.421875 Z M 12.5 -7.421875 "/></g></g></g></svg>